<?xml version="1.0" ?><!DOCTYPE svg  PUBLIC '-//W3C//DTD SVG 1.1//EN'  'http://www.w3.org/Graphics/SVG/1.1/DTD/svg11.dtd'><svg enable-background="new 0 0 50 50" id="Layer_1" version="1.1" viewBox="0 0 50 50" xml:space="preserve" xmlns="http://www.w3.org/2000/svg" xmlns:xlink="http://www.w3.org/1999/xlink"><path d="M45,1H5C2.8,1,1,2.8,1,5v40c0,2.2,1.8,4,4,4h40c2.2,0,4-1.8,4-4V5C49,2.8,47.2,1,45,1z" fill="#232323"/><path d="M40,20.2c0,0,0-0.1,0-0.1c0,0,0,0,0-0.1c0,0,0-0.1,0-0.1c0,0,0,0,0-0.1c0,0,0-0.1,0-0.1  c0,0,0,0,0-0.1c0,0,0-0.1-0.1-0.1c0,0,0,0,0-0.1c0,0,0,0-0.1-0.1c0,0,0,0-0.1,0c0,0,0,0-0.1-0.1c0,0,0,0-0.1,0c0,0,0,0,0,0  l-13.7-9.1c-0.4-0.3-1-0.3-1.4,0l-13.7,9.1c0,0,0,0,0,0c0,0,0,0-0.1,0c0,0,0,0-0.1,0.1c0,0,0,0-0.1,0c0,0,0,0-0.1,0.1c0,0,0,0,0,0.1  c0,0,0,0.1-0.1,0.1c0,0,0,0,0,0.1c0,0,0,0.1,0,0.1c0,0,0,0,0,0.1c0,0,0,0.1,0,0.1c0,0,0,0,0,0.1c0,0,0,0.1,0,0.1c0,0,0,0,0,0.1  c0,0.1,0,0.1,0,0.2v9.1c0,0.1,0,0.1,0,0.2c0,0,0,0,0,0.1c0,0,0,0.1,0,0.1c0,0,0,0,0,0.1c0,0,0,0.1,0,0.1c0,0,0,0,0,0.1  c0,0,0,0.1,0,0.1c0,0,0,0,0,0.1c0,0,0,0.1,0.1,0.1c0,0,0,0,0,0.1c0,0,0,0,0.1,0.1c0,0,0,0,0.1,0.1c0,0,0,0,0.1,0.1c0,0,0,0,0.1,0  c0,0,0,0,0,0l13.7,9.1c0.2,0.1,0.5,0.2,0.7,0.2c0.2,0,0.5-0.1,0.7-0.2l13.7-9.1c0,0,0,0,0,0c0,0,0,0,0.1,0c0,0,0.1,0,0.1-0.1  c0,0,0,0,0.1-0.1c0,0,0,0,0.1-0.1c0,0,0,0,0-0.1c0,0,0-0.1,0.1-0.1c0,0,0,0,0-0.1c0,0,0-0.1,0-0.1c0,0,0,0,0-0.1c0,0,0-0.1,0-0.1  c0,0,0,0,0-0.1c0,0,0-0.1,0-0.1c0,0,0,0,0-0.1c0,0,0-0.1,0-0.2v-9.1C40,20.4,40,20.3,40,20.2C40,20.2,40,20.2,40,20.2z M25,28  l-4.6-3l4.6-3l4.6,3L25,28z M23.7,19.7l-5.6,3.7l-4.5-3l10.1-6.7C23.7,13.7,23.7,19.7,23.7,19.7z M15.8,25l-3.2,2.2v-4.3L15.8,25z   M18.1,26.5l5.6,3.7v6l-10.1-6.7L18.1,26.5z M26.3,30.3l5.6-3.7l4.5,3l-10.1,6.7V30.3z M34.2,25l3.2-2.2v4.3L34.2,25z M31.9,23.4  l-5.6-3.7v-6l10.1,6.7L31.9,23.4z" fill="#FFFFFF" id="wtf"/></svg>